<?xml version="1.0" standalone="no"?>
<!DOCTYPE svg PUBLIC "-//W3C//DTD SVG 20010904//EN"
 "http://www.w3.org/TR/2001/REC-SVG-20010904/DTD/svg10.dtd">
<svg version="1.0" xmlns="http://www.w3.org/2000/svg"
 width="563.000000pt" height="450.000000pt" viewBox="0 0 563.000000 450.000000"
 preserveAspectRatio="xMidYMid meet">

<g transform="translate(0.000000,450.000000) scale(0.100000,-0.100000)"
fill="#000000" stroke="none">
<path style="fill: rgb(15,80,150);" d="M1739 4214 c-7 -8 -16 -40 -20 -71 -6 -42 -15 -64 -37 -87 -38 -40
-50 -79 -61 -200 -13 -130 -21 -141 -108 -149 -37 -3 -88 -13 -113 -23 -99
-38 -280 -14 -280 37 0 29 37 46 138 64 130 22 193 48 236 95 30 34 47 70 32
70 -2 0 -44 -19 -92 -42 -70 -34 -102 -43 -154 -46 -60 -4 -67 -2 -93 23 -20
21 -27 38 -27 69 -1 22 -9 63 -18 91 -39 112 -184 138 -242 43 -25 -42 -25
-91 1 -148 11 -24 18 -54 15 -65 -6 -25 -56 -54 -156 -90 -277 -98 -531 -334
-506 -467 16 -88 145 -302 286 -477 93 -115 192 -216 322 -329 l95 -84 6 -276
c8 -356 31 -523 103 -747 37 -112 115 -268 173 -345 52 -68 177 -197 185 -189
4 4 -3 312 -20 854 l-7 231 119 99 c197 165 304 229 487 290 110 37 276 65
379 65 83 0 222 -24 291 -50 100 -38 105 -27 57 122 -53 168 -99 219 -285 316
-129 67 -137 74 -155 125 -9 24 -12 26 -30 17 -30 -16 -57 -64 -80 -141 -40
-133 -144 -299 -187 -299 -25 0 -11 53 51 194 31 69 61 147 68 173 13 52 33
83 54 83 37 0 51 228 21 344 -13 48 -25 68 -71 113 -93 90 -216 280 -216 333
0 13 10 25 28 32 48 20 630 21 1497 3 942 -20 1336 -17 1430 9 55 15 204 97
265 145 33 26 23 36 -107 104 -162 83 -186 88 -418 94 -198 5 -322 2 -1390
-38 -302 -11 -707 -21 -900 -22 -332 -2 -352 -1 -389 18 -31 15 -43 29 -53 61
-8 22 -23 51 -34 62 -23 26 -71 29 -90 6z m2972 -188 c47 -17 88 -51 76 -62
-23 -23 -165 -27 -1102 -31 -964 -4 -1375 3 -1435 25 -93 34 265 58 1070 72
327 6 642 12 700 14 58 1 227 2 375 1 229 -1 277 -4 316 -19z m-3823 -292 c38
-26 82 -95 82 -126 0 -42 -21 -68 -118 -143 -103 -81 -162 -135 -162 -150 0
-6 30 -10 77 -10 101 0 107 -16 31 -86 -29 -27 -48 -49 -43 -49 6 0 53 7 105
15 100 15 158 12 167 -11 7 -20 -13 -42 -75 -81 -30 -19 -52 -37 -49 -39 3 -3
67 2 143 11 144 17 224 14 224 -9 0 -19 -51 -81 -119 -146 -82 -78 -129 -154
-141 -223 -16 -100 -31 -112 -98 -78 -120 62 -311 275 -559 621 l-61 85 31 43
c107 149 232 260 381 338 107 57 146 65 184 38z m832 -15 c0 -11 -24 -45 -53
-77 -29 -31 -67 -78 -84 -103 -40 -57 -105 -117 -138 -125 -43 -11 -52 -38
-86 -261 -7 -45 -16 -73 -23 -73 -11 0 -139 75 -375 220 l-104 64 49 45 c99
89 167 142 215 167 51 25 161 44 264 44 28 0 78 7 110 15 56 15 74 25 163 90
36 26 62 24 62 -6z m166 -118 c78 -62 144 -154 144 -200 0 -64 -42 -68 -95
-10 -35 39 -125 208 -125 236 0 23 26 14 76 -26z m4 -256 c33 -32 55 -35 172
-21 85 11 98 2 98 -66 0 -109 -92 -205 -215 -223 -60 -9 -100 -44 -89 -78 16
-52 69 -51 128 3 47 44 61 48 70 24 20 -52 -13 -180 -60 -232 l-24 -27 -53 58
c-29 31 -60 57 -69 57 -9 0 -25 -16 -37 -35 -43 -73 -85 -31 -93 93 -7 101
-23 121 -123 148 -43 12 -89 31 -104 41 -45 34 -73 96 -74 170 -2 87 11 97 85
64 29 -13 62 -25 74 -28 33 -7 74 36 139 145 l59 100 44 -81 c24 -45 56 -95
72 -112z m-498 -391 c10 -18 30 -87 44 -155 14 -68 37 -151 50 -184 38 -90 39
-95 18 -95 -36 0 -85 40 -104 83 -42 96 -85 358 -63 381 14 13 37 1 55 -30z
m241 -15 c29 -16 37 -28 37 -63 0 -54 -62 -126 -109 -126 -24 0 -53 59 -59
121 -4 40 -1 49 19 63 27 19 81 21 112 5z"/>
<path style="fill: rgb(215,40,40)" d="M2710 3400 l0 -150 25 0 c24 0 24 1 27 108 l3 107 70 -107 c61 -94
74 -108 98 -108 l27 0 0 150 0 150 -25 0 -25 0 0 -107 0 -108 -70 108 c-63 97
-72 107 -100 107 l-30 0 0 -150z"/>
<path style="fill: rgb(215,40,40)" d="M3105 3536 c-53 -24 -78 -60 -83 -121 -8 -95 33 -150 120 -161 81
-10 148 46 155 133 10 111 -96 194 -192 149z m109 -68 c9 -12 16 -43 16 -68 0
-63 -21 -90 -70 -90 -49 0 -80 35 -80 90 0 55 31 90 80 90 29 0 43 -6 54 -22z"/>
<path style="fill: rgb(215,40,40)" d="M3350 3400 l0 -150 30 0 30 0 0 60 c0 54 2 60 20 60 19 0 34 -19 85
-105 7 -11 20 -16 43 -13 l33 3 -45 68 -44 67 29 29 c32 32 35 47 18 85 -15
32 -56 46 -135 46 l-64 0 0 -150z m138 72 c5 -32 -15 -52 -49 -52 -27 0 -29 3
-29 41 l0 40 38 -3 c30 -2 38 -7 40 -26z"/>
<path style="fill: rgb(215,40,40)" d="M3590 3525 c0 -22 4 -25 40 -25 l40 0 0 -125 0 -125 30 0 30 0 0 125
0 125 40 0 c36 0 40 3 40 25 l0 25 -110 0 -110 0 0 -25z"/>
<path style="fill: rgb(215,40,40)" d="M3860 3400 l0 -150 30 0 30 0 0 60 0 60 60 0 60 0 0 -60 0 -60 30 0
30 0 0 150 0 150 -30 0 -30 0 0 -60 0 -60 -60 0 -60 0 0 60 0 60 -30 0 -30 0
0 -150z"/>
<path style="fill: rgb(215,40,40)" d="M4150 3545 c0 -4 17 -72 37 -151 l37 -144 36 0 36 0 23 98 c13 53 27
103 30 110 4 7 15 -22 25 -64 35 -148 33 -144 70 -144 l33 0 37 143 c20 78 36
145 36 150 0 4 -13 7 -28 7 -28 0 -29 -2 -47 -97 -27 -145 -28 -146 -54 -36
-12 54 -25 106 -28 116 -3 12 -14 17 -37 17 l-33 0 -29 -115 c-15 -62 -30
-112 -33 -110 -2 3 -13 53 -25 112 l-22 108 -32 3 c-18 2 -32 0 -32 -3z"/>
<path style="fill: rgb(215,40,40)" d="M4665 3536 c-53 -24 -78 -60 -83 -121 -8 -95 33 -150 120 -161 81
-10 148 46 155 133 10 111 -96 194 -192 149z m109 -68 c9 -12 16 -43 16 -68 0
-63 -21 -90 -70 -90 -49 0 -80 35 -80 90 0 55 31 90 80 90 29 0 43 -6 54 -22z"/>
<path style="fill: rgb(215,40,40)" d="M4974 3536 c-92 -40 -111 -184 -33 -250 63 -53 167 -39 209 28 27 45
27 129 0 174 -34 55 -111 76 -176 48z m102 -54 c19 -12 34 -49 34 -82 0 -33
-15 -70 -34 -82 -6 -4 -28 -8 -48 -8 -46 0 -71 31 -71 90 0 59 25 90 71 90 20
0 42 -4 48 -8z"/>
<path style="fill: rgb(215,40,40)" d="M5220 3400 l0 -150 68 0 c120 0 192 57 192 153 0 101 -58 146 -187
147 l-73 0 0 -150z m145 90 c16 -6 32 -24 41 -47 31 -73 -20 -150 -94 -141
-27 3 -27 4 -30 87 -2 46 -1 90 2 98 6 15 44 17 81 3z"/>
<path style="fill: rgb(15,80,150);" d="M2805 3105 c-79 -28 -124 -110 -110 -201 14 -95 109 -152 212 -127
33 8 38 13 41 42 3 30 2 32 -19 26 -39 -13 -97 -9 -123 9 -14 8 -29 31 -34 49
-28 101 47 173 151 144 26 -7 27 -6 27 27 0 30 -4 34 -31 40 -45 9 -69 7 -114
-9z"/>
<path style="fill: rgb(15,80,150);" d="M3020 2945 l0 -175 35 0 35 0 0 65 c0 63 1 65 25 65 21 0 34 -13 66
-65 39 -62 43 -65 81 -65 l39 0 -18 31 c-10 16 -34 52 -54 78 l-37 49 23 12
c40 22 58 88 34 132 -17 31 -71 48 -154 48 l-75 0 0 -175z m164 83 c13 -37
-14 -68 -61 -68 l-33 0 0 51 0 50 42 -3 c36 -3 44 -7 52 -30z"/>
<path style="fill: rgb(15,80,150);" d="M3342 2979 l3 -141 32 -28 c58 -52 152 -49 204 6 23 24 24 33 27 165
l4 139 -36 0 -36 0 0 -123 c0 -88 -4 -128 -14 -142 -17 -24 -69 -24 -96 0 -18
16 -20 31 -20 142 l0 123 -36 0 -36 0 4 -141z"/>
<path style="fill: rgb(15,80,150);" d="M3753 3109 c-39 -11 -73 -53 -73 -89 0 -39 34 -76 96 -106 42 -20 54
-30 54 -49 0 -37 -65 -48 -120 -20 l-30 16 0 -35 c0 -33 3 -36 42 -46 55 -15
122 -4 155 25 22 18 28 32 28 63 0 50 -20 72 -89 105 -93 44 -80 93 22 84 52
-6 52 -5 52 22 0 24 -5 30 -31 35 -40 8 -66 7 -106 -5z"/>
<path style="fill: rgb(15,80,150);" d="M4055 3108 c-2 -7 -29 -83 -60 -168 -30 -85 -55 -158 -55 -163 0 -5
17 -7 37 -5 34 3 38 6 46 41 l9 37 67 0 67 0 10 -37 c8 -35 12 -38 47 -41 20
-2 37 0 37 5 0 4 -26 82 -58 173 l-57 165 -43 3 c-28 2 -44 -1 -47 -10z m68
-118 c9 -32 17 -64 17 -70 0 -5 -20 -10 -44 -10 l-44 0 21 70 c11 39 23 70 26
70 3 0 14 -27 24 -60z"/>
<path style="fill: rgb(15,80,150);" d="M4320 2945 l0 -177 88 4 c143 7 194 50 200 168 6 126 -43 172 -195
178 l-93 4 0 -177z m187 80 c33 -33 35 -38 31 -87 -7 -67 -48 -108 -108 -108
l-40 0 0 115 0 115 41 0 c34 0 47 -6 76 -35z"/>
<path style="fill: rgb(15,80,150);" d="M4680 2945 l0 -175 95 0 95 0 0 30 0 30 -60 0 -60 0 0 45 0 45 55 0
c54 0 55 0 55 30 0 30 -1 30 -55 30 l-55 0 0 40 0 40 60 0 60 0 0 30 0 30 -95
0 -95 0 0 -175z"/>
<path style="fill: rgb(15,80,150);" d="M4940 2945 l0 -175 35 0 35 0 0 65 c0 58 2 65 19 65 25 0 44 -19 78
-80 27 -48 30 -50 71 -50 l43 0 -42 63 c-23 34 -51 70 -63 79 -16 14 -18 18
-5 18 24 0 59 44 65 81 11 75 -38 107 -163 108 l-73 1 0 -175z m144 109 c19
-7 22 -64 4 -82 -7 -7 -27 -12 -45 -12 -33 0 -33 0 -33 50 0 49 1 50 29 50 16
0 36 -3 45 -6z"/>
<path style="fill: rgb(15,80,150);" d="M5313 3109 c-39 -11 -73 -52 -73 -88 0 -40 25 -68 89 -101 32 -16 61
-36 64 -44 16 -41 -65 -61 -123 -31 l-30 16 0 -35 c0 -33 3 -36 42 -46 126
-35 234 59 167 144 -11 14 -45 37 -74 51 -60 29 -72 47 -48 71 13 12 30 15 70
12 52 -5 53 -4 53 23 0 19 -6 28 -22 33 -31 8 -77 6 -115 -5z"/>
<path style="fill: rgb(215,40,40)" d="M2172 2290 c-277 -73 -467 -176 -630 -342 l-53 -55 11 -314 c18 -517
41 -680 121 -849 84 -177 382 -485 563 -581 53 -29 65 -31 126 -27 81 6 162
46 291 142 232 175 431 415 497 601 48 134 67 306 85 757 l12 288 -95 78
c-119 99 -187 143 -315 203 -161 75 -353 129 -453 129 -26 -1 -98 -14 -160
-30z m215 -431 c206 -29 401 -144 432 -255 19 -67 14 -338 -8 -460 -26 -142
-32 -162 -77 -237 -46 -76 -216 -253 -302 -314 -80 -58 -111 -60 -185 -11 -56
38 -189 176 -263 275 -94 125 -122 233 -131 503 -9 277 7 311 213 434 125 74
177 85 321 65z"/>
<path style="fill: rgb(215,40,40)" d="M2287 1559 c-32 -4 -63 -11 -68 -16 -6 -6 4 -38 26 -86 36 -78 42
-102 26 -111 -5 -4 -41 -2 -81 4 -97 14 -110 6 -110 -66 0 -54 12 -92 34 -106
6 -4 30 -8 54 -8 51 0 87 -30 78 -63 -3 -12 -9 -46 -12 -74 -7 -51 -6 -53 22
-64 28 -11 144 -6 178 7 24 9 27 36 15 114 -8 54 -8 75 1 84 6 6 45 11 93 11
l82 0 -3 45 c-4 62 -20 108 -42 120 -12 6 -36 6 -71 0 -79 -15 -85 -5 -64 99
12 61 14 86 5 96 -13 16 -85 22 -163 14z"/>
</g>
</svg>
