<?xml version="1.0" standalone="no"?>
<!DOCTYPE svg PUBLIC "-//W3C//DTD SVG 20010904//EN"
 "http://www.w3.org/TR/2001/REC-SVG-20010904/DTD/svg10.dtd">
<svg version="1.0" xmlns="http://www.w3.org/2000/svg"
 width="2048.000000pt" height="2048.000000pt" viewBox="0 0 2048.000000 2048.000000"
 preserveAspectRatio="xMidYMid meet">

<g transform="translate(0.000000,2048.000000) scale(0.100000,-0.100000)"
fill="#000000" stroke="none">
<path d="M15522 20441 c-1 -7 -49 -109 -106 -225 -160 -326 -206 -423 -206
-435 0 -6 -4 -11 -8 -11 -4 0 -16 -22 -26 -50 -10 -27 -22 -50 -27 -50 -5 0
-9 -5 -9 -11 0 -5 -33 -78 -74 -162 -40 -84 -77 -162 -80 -174 -4 -13 -12 -23
-17 -23 -5 0 -9 -5 -9 -11 0 -6 -36 -85 -80 -175 -44 -90 -80 -168 -80 -174 0
-5 -4 -10 -10 -10 -5 0 -10 -5 -10 -11 0 -7 -39 -91 -86 -188 -98 -200 -244
-498 -363 -743 -44 -91 -81 -171 -81 -177 0 -6 -4 -11 -8 -11 -5 0 -15 -18
-22 -40 -7 -22 -19 -45 -27 -51 -7 -6 -13 -16 -13 -21 0 -5 -25 -60 -55 -123
-30 -62 -55 -118 -55 -124 0 -6 -4 -11 -8 -11 -4 0 -16 -22 -26 -50 -10 -27
-22 -50 -27 -50 -5 0 -9 -5 -9 -10 0 -6 -9 -30 -21 -55 -23 -50 -40 -55 -79
-25 -14 11 -29 20 -33 20 -4 0 -33 16 -63 35 -30 19 -57 35 -60 35 -3 0 -25
12 -48 28 -22 15 -60 36 -83 47 -24 11 -43 23 -43 27 0 3 -13 9 -29 13 -16 3
-34 12 -40 19 -6 7 -31 21 -56 32 -25 10 -45 21 -45 25 0 4 -13 10 -29 14 -16
3 -35 12 -41 20 -6 8 -24 17 -40 20 -16 3 -34 12 -40 20 -6 7 -33 21 -61 31
-27 10 -49 21 -49 26 0 4 -16 10 -36 14 -19 4 -38 12 -41 19 -2 7 -16 16 -31
20 -15 3 -49 17 -77 30 -78 36 -143 65 -149 65 -3 0 -35 14 -71 30 -36 17 -72
30 -80 30 -8 0 -15 4 -15 9 0 5 -13 11 -30 14 -16 4 -49 16 -72 27 -23 11 -48
20 -55 20 -7 0 -21 4 -31 9 -9 5 -30 14 -47 21 -16 7 -37 16 -46 20 -9 5 -33
12 -53 15 -20 4 -39 11 -42 16 -3 5 -14 9 -25 9 -10 0 -27 4 -37 9 -45 23
-163 61 -188 61 -8 0 -22 4 -32 9 -9 5 -32 15 -49 21 -31 11 -50 25 -98 68
-16 15 -144 122 -284 237 -13 11 -34 29 -46 40 -13 11 -39 34 -59 50 -21 17
-51 43 -69 58 -18 16 -74 63 -124 105 -51 42 -93 80 -93 84 0 5 8 11 18 14 9
3 26 10 37 15 11 4 45 15 75 23 164 45 215 61 220 66 3 4 38 14 79 24 41 9 79
20 85 25 6 5 36 14 66 21 30 7 60 16 65 20 6 4 45 16 88 26 42 10 77 21 77 25
0 4 19 10 43 13 23 4 54 13 68 20 14 7 59 21 100 31 41 10 79 21 84 25 6 4 35
13 65 20 30 7 66 18 80 25 14 7 43 16 65 19 22 4 54 14 70 21 28 13 105 36
240 72 33 9 62 19 65 23 3 4 38 14 79 24 41 9 79 20 85 25 6 5 36 14 66 21 30
7 60 16 65 20 6 4 36 13 68 20 31 7 56 15 54 17 -6 5 -231 -27 -252 -37 -11
-5 -65 -14 -120 -21 -55 -6 -110 -15 -122 -20 -11 -4 -77 -15 -145 -24 -67 -9
-130 -19 -138 -22 -15 -7 -216 -40 -410 -69 -58 -8 -114 -19 -125 -24 -11 -5
-76 -16 -145 -25 -69 -9 -132 -19 -140 -22 -15 -6 -73 -16 -380 -66 -80 -13
-152 -26 -160 -30 -8 -3 -58 -11 -110 -17 -52 -6 -110 -16 -128 -21 -30 -10
-36 -8 -85 32 -28 24 -59 50 -68 59 -9 8 -33 29 -54 45 -20 17 -45 37 -54 46
-13 13 -102 87 -220 184 -13 11 -31 27 -40 35 -9 8 -32 27 -51 41 -19 15 -46
37 -60 51 -14 13 -92 79 -173 147 -82 68 -157 130 -166 139 -10 10 -29 26 -42
37 -178 146 -298 247 -328 278 -13 13 -51 22 -132 33 -63 8 -177 24 -254 35
-77 10 -223 30 -325 43 -102 13 -185 25 -185 26 0 2 -151 22 -510 68 -77 10
-147 21 -155 24 -8 4 -87 14 -175 23 -88 9 -172 21 -187 26 -14 6 -34 9 -44 7
-12 -2 12 -22 73 -61 75 -48 201 -129 273 -177 8 -5 36 -23 63 -40 26 -16 68
-44 95 -60 26 -17 54 -35 62 -40 8 -6 40 -26 70 -45 30 -19 62 -39 70 -45 8
-6 40 -26 70 -45 30 -19 62 -39 70 -45 8 -6 40 -26 70 -45 30 -19 60 -39 67
-44 7 -6 28 -18 47 -28 20 -9 36 -20 36 -24 0 -3 14 -12 30 -19 17 -7 30 -16
30 -20 0 -4 18 -15 40 -25 22 -10 40 -21 40 -25 0 -4 14 -13 30 -20 17 -7 30
-16 30 -19 0 -4 16 -15 36 -24 19 -10 40 -22 47 -28 7 -5 37 -25 67 -44 30
-19 62 -39 70 -45 8 -6 40 -26 70 -45 30 -19 62 -39 70 -45 8 -6 40 -26 70
-45 30 -19 62 -40 70 -45 22 -15 294 -191 370 -240 178 -113 214 -137 217
-147 2 -6 -25 -13 -69 -18 -40 -3 -78 -11 -84 -16 -16 -13 -133 -16 -142 -4
-4 6 -27 19 -52 30 -25 11 -47 22 -50 26 -3 3 -22 12 -43 20 -20 7 -37 16 -37
20 0 3 -21 14 -47 24 -27 10 -50 21 -53 24 -3 3 -185 96 -405 206 -220 110
-402 203 -405 206 -3 3 -26 14 -52 24 -27 10 -48 21 -48 25 0 4 -18 13 -40 20
-22 7 -40 16 -40 20 0 4 -21 15 -47 25 -27 10 -50 21 -53 24 -3 4 -185 96
-405 206 -220 110 -402 203 -405 206 -3 3 -21 11 -40 19 -19 7 -42 19 -50 25
-8 7 -32 18 -52 26 -21 7 -38 16 -38 20 0 3 -21 14 -47 24 -26 10 -52 22 -58
27 -21 18 -508 258 -513 253 -3 -3 0 -5 6 -5 6 0 17 -6 24 -12 7 -7 40 -31 73
-53 33 -22 62 -43 65 -46 3 -3 21 -14 40 -24 19 -10 37 -21 40 -25 3 -4 30
-23 60 -44 67 -45 78 -52 111 -74 15 -9 58 -38 95 -64 38 -26 96 -65 129 -87
33 -23 65 -44 70 -48 6 -5 37 -26 70 -48 33 -22 65 -43 70 -48 44 -32 146
-100 173 -114 17 -9 32 -20 32 -24 0 -3 13 -12 30 -19 16 -7 30 -16 30 -21 0
-5 14 -16 32 -25 17 -9 36 -20 42 -25 11 -9 37 -27 231 -157 55 -37 106 -73
113 -79 7 -7 17 -13 22 -13 5 0 15 -6 22 -13 14 -13 196 -137 251 -172 18 -10
38 -25 45 -31 6 -7 21 -16 32 -19 11 -3 20 -10 20 -14 0 -3 15 -15 33 -26 17
-10 37 -23 42 -27 6 -5 37 -27 70 -48 151 -100 181 -120 190 -127 6 -5 34 -23
63 -42 28 -18 52 -36 52 -40 0 -10 -81 -27 -195 -41 -49 -6 -97 -14 -105 -17
-16 -7 -227 -42 -410 -69 -58 -8 -112 -18 -120 -21 -8 -4 -78 -17 -155 -29
-77 -13 -194 -32 -260 -44 -66 -11 -183 -31 -260 -44 -77 -12 -147 -25 -155
-28 -8 -4 -58 -11 -110 -18 -52 -6 -122 -18 -155 -25 -33 -8 -101 -19 -152
-26 l-92 -12 -73 -65 c-40 -35 -96 -85 -124 -111 -169 -154 -214 -190 -236
-191 -10 0 -18 -4 -18 -10 0 -5 -7 -10 -16 -10 -18 0 -15 15 26 110 16 36 32
77 35 93 4 15 11 27 15 27 4 0 13 20 20 45 7 25 16 48 21 50 4 3 15 27 24 54
8 26 24 65 35 87 11 21 20 46 20 56 0 10 4 18 8 18 5 0 15 19 21 43 12 39 36
95 82 193 10 23 19 45 19 50 1 5 9 27 20 49 11 22 19 43 20 47 0 4 14 37 30
73 17 36 30 72 30 80 0 8 4 15 8 15 5 0 15 19 21 43 13 40 48 125 75 177 8 14
19 43 26 65 7 22 16 45 20 50 4 6 10 18 13 28 5 14 3 16 -11 8 -9 -5 -24 -18
-33 -28 -8 -10 -51 -49 -94 -88 -43 -38 -91 -81 -106 -95 -14 -14 -61 -56
-103 -95 -43 -38 -97 -88 -121 -110 -37 -35 -145 -133 -226 -206 -14 -13 -61
-55 -104 -94 -43 -38 -97 -88 -121 -110 -23 -22 -77 -72 -120 -111 -44 -40
-91 -82 -105 -95 -14 -13 -61 -55 -104 -94 -43 -38 -99 -90 -125 -115 -26 -25
-80 -75 -121 -111 -41 -37 -87 -79 -104 -94 -16 -15 -53 -48 -81 -74 -28 -25
-93 -84 -144 -131 -52 -47 -118 -107 -149 -135 -30 -27 -84 -77 -120 -111 -36
-33 -86 -78 -110 -100 -24 -21 -61 -55 -81 -74 -20 -19 -72 -66 -116 -105 -43
-38 -85 -77 -94 -85 -9 -8 -70 -64 -135 -125 -66 -60 -125 -114 -131 -120 -6
-5 -46 -41 -89 -80 -43 -38 -86 -77 -95 -86 -79 -75 -230 -209 -235 -209 -9 0
3 494 15 595 5 44 16 321 25 615 8 294 20 579 26 633 6 54 9 100 6 103 -2 3
-12 -14 -22 -38 -9 -24 -20 -45 -23 -48 -4 -3 -36 -63 -72 -135 -36 -71 -68
-132 -71 -135 -3 -3 -11 -21 -19 -40 -7 -19 -18 -42 -25 -50 -6 -8 -40 -72
-75 -142 -36 -71 -97 -190 -136 -265 -39 -76 -107 -210 -152 -298 -45 -88 -85
-165 -89 -170 -4 -6 -37 -69 -73 -140 -36 -72 -67 -132 -70 -135 -4 -3 -12
-21 -20 -40 -7 -19 -17 -40 -22 -46 -4 -6 -37 -68 -73 -138 -35 -70 -68 -133
-73 -139 -5 -7 -15 -28 -22 -47 -8 -19 -16 -37 -19 -40 -3 -3 -35 -63 -71
-133 -36 -70 -108 -212 -162 -315 -53 -103 -122 -239 -155 -302 -32 -63 -62
-118 -66 -121 -5 -3 -9 -10 -9 -15 -1 -14 -29 -78 -37 -84 -3 -3 -36 -63 -71
-135 -36 -71 -68 -132 -71 -135 -3 -3 -11 -21 -19 -40 -8 -19 -17 -37 -20 -40
-3 -3 -25 -44 -49 -92 -26 -53 -62 -107 -91 -135 -66 -68 -152 -143 -162 -143
-4 0 -5 44 -2 98 18 308 25 422 38 657 18 310 35 573 43 635 3 25 3 42 -1 39
-3 -3 -15 -66 -26 -140 -12 -74 -25 -143 -30 -154 -5 -11 -14 -58 -20 -105 -6
-47 -15 -94 -20 -105 -5 -11 -19 -76 -30 -145 -29 -174 -55 -312 -63 -330 -3
-8 -15 -69 -26 -135 -11 -66 -32 -181 -46 -255 -14 -74 -32 -168 -39 -209 -13
-71 -16 -77 -67 -123 -30 -27 -94 -86 -144 -131 -49 -46 -110 -101 -134 -123
-24 -21 -61 -55 -81 -74 -20 -19 -72 -66 -115 -105 -43 -38 -103 -94 -134
-124 l-56 -54 55 39 c30 21 60 42 65 46 6 5 35 25 65 45 30 20 57 39 60 43 3
4 20 15 38 24 17 9 32 20 32 25 0 5 13 14 30 21 16 7 30 15 30 19 0 4 15 15
32 26 18 10 35 21 38 24 3 4 32 24 65 46 71 48 72 48 111 80 50 39 57 34 49
-32 -4 -32 -10 -62 -15 -68 -4 -5 -13 -50 -19 -100 -7 -49 -16 -99 -21 -110
-5 -11 -14 -54 -20 -95 -8 -55 -25 -103 -63 -180 -29 -58 -54 -107 -57 -110
-3 -3 -45 -84 -94 -180 -48 -96 -121 -238 -160 -315 -40 -77 -110 -212 -155
-300 -44 -88 -85 -164 -89 -170 -4 -5 -14 -26 -22 -45 -7 -19 -18 -42 -24 -50
-7 -8 -29 -51 -51 -95 -22 -44 -42 -82 -45 -85 -4 -3 -12 -21 -20 -40 -8 -19
-18 -39 -22 -45 -9 -11 -95 -177 -229 -445 -46 -91 -85 -167 -88 -170 -3 -3
-28 -49 -56 -102 -27 -54 -50 -98 -52 -98 -1 0 -26 25 -55 56 -191 204 -189
202 -177 164 7 -19 15 -39 19 -45 4 -5 11 -26 15 -45 4 -19 13 -48 20 -65 8
-16 21 -57 31 -90 9 -33 20 -64 24 -70 4 -5 12 -29 17 -53 10 -40 9 -47 -38
-137 -27 -52 -47 -95 -45 -95 7 0 86 119 86 131 0 6 8 9 17 7 11 -2 21 -21 29
-53 7 -27 18 -59 23 -70 5 -11 17 -47 26 -80 9 -33 20 -64 25 -70 4 -5 13 -35
20 -65 7 -30 16 -57 20 -60 3 -3 14 -34 24 -70 10 -36 22 -69 26 -75 4 -5 13
-36 20 -67 7 -32 16 -58 20 -58 3 0 15 -33 25 -72 10 -40 21 -75 25 -78 3 -3
13 -30 22 -60 40 -135 63 -205 68 -210 5 -5 28 -75 68 -210 9 -30 19 -57 22
-60 3 -3 14 -36 25 -75 10 -38 21 -75 26 -80 4 -6 13 -33 20 -60 7 -28 15 -52
19 -55 11 -8 52 -161 56 -210 2 -25 9 -103 14 -175 6 -71 15 -168 21 -215 5
-47 14 -132 20 -190 10 -106 20 -180 38 -280 5 -30 14 -86 20 -125 6 -38 18
-106 26 -150 9 -44 18 -98 21 -120 3 -22 9 -49 14 -60 9 -20 10 -27 30 -145 6
-36 17 -78 25 -95 7 -16 16 -52 20 -80 4 -27 12 -55 17 -62 6 -7 8 -18 6 -24
-2 -7 -24 13 -49 45 -24 32 -53 68 -64 81 -11 13 -29 36 -40 51 -11 14 -29 36
-40 49 -11 13 -27 32 -35 42 -21 25 -326 412 -379 481 -142 185 -226 288 -188
232 9 -14 26 -41 38 -60 11 -19 31 -53 44 -75 13 -22 33 -56 45 -75 11 -19 26
-44 33 -55 6 -11 23 -38 37 -60 14 -22 31 -49 37 -60 7 -11 22 -36 33 -55 29
-49 58 -98 108 -181 23 -40 42 -76 42 -80 0 -5 4 -9 8 -9 5 0 16 -15 25 -32 9
-18 28 -51 42 -73 14 -22 35 -59 47 -82 12 -24 26 -43 30 -43 4 0 8 -4 8 -9 0
-5 18 -38 40 -72 21 -35 58 -95 80 -134 23 -38 54 -90 70 -115 16 -25 37 -61
46 -80 10 -19 21 -37 24 -40 3 -3 19 -27 35 -55 17 -27 34 -57 40 -66 47 -77
124 -231 130 -259 4 -19 13 -42 20 -50 7 -8 16 -29 20 -47 3 -18 15 -50 26
-72 10 -22 19 -45 19 -50 0 -6 9 -26 20 -46 11 -20 20 -40 20 -46 0 -5 9 -31
21 -57 19 -42 34 -77 60 -137 17 -41 103 -224 160 -341 32 -67 59 -127 59
-133 0 -6 4 -11 9 -11 5 0 14 -15 22 -32 7 -18 15 -35 18 -38 4 -3 13 -18 21
-35 16 -33 112 -205 147 -263 12 -20 28 -48 35 -62 7 -14 15 -27 19 -30 3 -3
12 -16 19 -30 12 -24 36 -63 142 -225 56 -85 94 -160 104 -200 4 -16 10 -34
14 -40 4 -5 15 -37 24 -70 9 -33 21 -69 26 -80 7 -16 40 -115 45 -135 1 -3 4
-12 8 -20 3 -8 11 -35 17 -60 7 -25 15 -49 19 -55 5 -5 16 -39 26 -75 9 -36
21 -69 25 -75 4 -5 11 -26 15 -45 4 -19 13 -48 20 -65 8 -16 21 -57 31 -90 9
-33 20 -64 24 -70 4 -5 11 -26 15 -45 4 -19 13 -48 20 -65 7 -16 16 -37 19
-45 3 -8 3 10 0 40 -4 30 -9 60 -12 65 -6 10 -36 161 -68 350 -8 50 -19 99
-24 110 -12 28 -38 205 -30 205 4 0 19 -17 32 -38 24 -35 167 -218 229 -292
16 -19 34 -41 40 -49 54 -63 122 -142 149 -171 52 -55 144 -171 171 -215 13
-22 29 -47 34 -56 6 -9 21 -36 34 -60 13 -24 27 -46 30 -49 4 -3 12 -16 19
-30 7 -14 30 -54 52 -90 22 -36 43 -72 47 -80 4 -8 21 -36 39 -61 31 -44 64
-103 64 -113 0 -3 -17 -8 -37 -12 -21 -4 -42 -10 -48 -14 -5 -4 -46 -13 -90
-20 -44 -6 -84 -15 -90 -18 -9 -6 -86 -23 -315 -67 -47 -9 -94 -20 -105 -25
-11 -5 -63 -17 -115 -25 -52 -9 -102 -19 -110 -22 -16 -7 -112 -28 -300 -65
-63 -12 -116 -26 -118 -30 -2 -5 -16 -8 -30 -8 -45 0 -59 -17 -21 -23 90 -16
246 -50 264 -58 11 -4 49 -13 85 -19 36 -6 85 -17 110 -25 25 -7 79 -19 120
-26 41 -7 80 -15 85 -19 6 -4 55 -16 110 -25 55 -10 105 -21 110 -25 6 -4 46
-13 90 -20 44 -7 85 -16 90 -20 6 -4 55 -16 110 -25 55 -10 105 -21 110 -25 6
-4 46 -13 90 -20 44 -7 85 -16 90 -20 6 -4 53 -15 105 -24 52 -9 104 -21 115
-26 11 -5 56 -16 100 -25 132 -25 289 -60 300 -66 6 -4 57 -14 115 -24 58 -9
110 -21 115 -25 6 -4 44 -13 85 -20 41 -7 80 -16 85 -20 6 -4 57 -16 115 -25
58 -10 110 -21 115 -25 6 -4 28 -11 50 -14 35 -7 162 -62 175 -77 3 -3 21 -11
40 -19 19 -7 42 -19 50 -25 8 -7 32 -18 52 -26 21 -7 38 -16 38 -20 0 -4 23
-15 50 -25 28 -10 50 -21 50 -24 0 -4 18 -13 40 -20 22 -7 40 -17 40 -21 0 -4
14 -12 30 -18 36 -12 37 -9 8 19 -12 11 -19 23 -15 26 8 9 67 -16 67 -27 0 -5
5 -9 12 -9 6 0 66 -27 133 -60 67 -33 127 -60 133 -60 7 0 12 -4 12 -10 0 -5
6 -10 13 -10 7 0 39 -13 72 -29 56 -26 81 -38 168 -75 17 -8 53 -23 79 -35 26
-12 52 -21 57 -21 6 0 26 -9 46 -20 20 -11 40 -20 46 -20 5 0 28 -9 50 -19 22
-11 54 -23 72 -26 18 -4 39 -13 47 -21 13 -11 36 -19 128 -41 12 -3 22 -9 22
-13 0 -4 20 -11 45 -14 25 -4 51 -13 58 -20 12 -12 63 -28 140 -43 15 -3 27
-8 27 -12 0 -4 27 -13 60 -20 33 -8 60 -17 60 -21 0 -5 24 -11 53 -15 28 -4
61 -13 73 -20 18 -12 68 -24 167 -42 15 -3 27 -9 27 -13 0 -4 28 -11 62 -14
34 -4 74 -14 88 -21 22 -13 83 -26 193 -42 54 -7 41 -26 -29 -41 -32 -7 -68
-17 -79 -22 -11 -5 -47 -14 -80 -21 -33 -7 -64 -16 -70 -19 -5 -4 -48 -16 -95
-26 -47 -9 -87 -21 -90 -25 -3 -3 -25 -10 -50 -14 -25 -4 -70 -15 -100 -25
-30 -10 -82 -23 -115 -30 -33 -7 -64 -15 -70 -20 -5 -4 -48 -15 -95 -25 -47
-9 -89 -21 -95 -25 -5 -4 -39 -13 -75 -20 -36 -7 -69 -16 -75 -20 -5 -4 -46
-15 -90 -25 -44 -9 -84 -21 -90 -25 -5 -4 -39 -13 -75 -20 -36 -6 -69 -15 -75
-20 -5 -4 -48 -16 -95 -25 -47 -9 -89 -21 -95 -25 -5 -4 -45 -15 -88 -24 -43
-9 -85 -20 -95 -24 -9 -5 -46 -15 -82 -22 -36 -7 -67 -16 -70 -20 -3 -3 -43
-14 -90 -24 -47 -10 -89 -21 -95 -26 -5 -4 -39 -13 -75 -20 -36 -6 -69 -15
-75 -20 -5 -4 -48 -16 -95 -25 -47 -9 -89 -21 -95 -25 -5 -5 -39 -14 -75 -20
-36 -7 -69 -16 -75 -20 -5 -4 -44 -15 -85 -24 -41 -9 -84 -20 -95 -25 -11 -5
-64 -19 -118 -31 -110 -24 -125 -36 -26 -19 35 5 127 18 204 28 77 9 147 20
155 23 8 4 89 14 180 23 91 9 174 20 185 25 11 5 76 14 145 20 69 6 139 15
155 20 17 5 102 16 190 25 88 9 167 19 175 23 8 3 96 16 195 28 99 13 248 32
330 44 83 11 231 31 330 43 99 13 187 26 195 29 8 4 71 11 140 18 69 6 132 14
140 18 14 5 170 26 536 70 83 11 155 21 160 24 5 3 81 13 169 23 88 9 167 19
175 22 15 6 265 39 520 69 74 8 144 19 155 24 34 15 232 30 415 31 100 0 183
5 194 11 11 6 114 14 230 18 212 8 604 42 684 60 23 6 64 10 92 10 27 0 52 4
55 10 3 5 24 10 45 10 22 0 59 4 82 10 24 5 75 14 113 21 39 6 90 15 115 20
118 24 160 25 273 7 61 -10 123 -22 137 -27 14 -5 59 -15 100 -21 41 -6 82
-14 90 -17 14 -6 144 -33 345 -71 50 -10 95 -20 100 -24 6 -3 60 -14 120 -23
61 -10 115 -21 120 -25 6 -4 48 -13 95 -20 47 -7 90 -16 95 -20 6 -4 60 -15
120 -24 61 -10 119 -21 130 -26 11 -5 70 -19 130 -30 61 -11 142 -27 180 -34
69 -14 71 -14 140 14 39 15 85 31 103 34 17 4 32 11 32 15 0 4 21 12 46 19 25
7 65 21 88 31 22 10 56 22 74 26 17 3 32 10 32 14 0 4 21 12 46 19 25 7 65 21
88 31 22 10 56 22 74 26 17 3 32 10 32 15 0 4 21 13 47 19 26 7 65 21 88 31
22 10 54 22 70 26 17 4 35 11 41 16 6 4 36 15 65 24 30 9 59 19 64 24 6 4 35
15 65 25 30 10 60 21 65 25 6 4 31 13 58 20 26 7 47 16 47 19 0 4 21 12 46 19
25 7 66 21 90 32 23 11 49 20 56 20 7 0 25 6 39 14 15 7 50 21 79 31 29 10 64
24 79 31 14 8 33 14 41 14 8 0 29 7 45 16 17 9 41 20 55 24 16 4 -33 11 -130
18 -85 6 -270 21 -410 32 -395 31 -896 68 -1210 89 -157 11 -300 23 -317 26
-36 6 -43 19 -15 29 9 3 35 19 57 36 105 80 223 157 285 188 19 9 37 19 40 23
8 8 77 39 88 39 5 0 15 6 21 14 7 8 26 18 42 21 16 4 29 10 29 14 0 5 21 18
48 30 47 21 103 52 112 61 6 6 70 42 120 67 19 10 38 21 41 26 5 7 34 23 114
65 17 8 34 21 38 29 4 7 14 13 22 13 7 0 20 6 27 13 18 18 76 44 118 52 19 4
40 11 45 15 6 4 37 13 70 20 33 7 75 18 94 26 19 8 36 12 38 10 6 -5 -17 -137
-27 -161 -5 -11 -16 -56 -25 -100 -9 -44 -26 -129 -38 -190 -12 -60 -26 -117
-31 -125 -19 -32 14 8 106 126 51 66 104 136 118 154 14 18 36 48 50 65 14 18
32 43 40 55 8 12 59 79 113 148 108 140 123 150 244 177 43 9 83 21 88 25 6 4
39 13 75 20 36 6 70 16 75 20 6 4 49 16 98 25 48 10 87 21 87 25 0 4 21 11 48
15 26 4 72 15 102 25 30 10 82 23 115 30 33 7 65 16 70 20 6 4 46 15 90 25 44
9 85 21 90 25 6 4 39 13 75 20 36 6 70 15 75 20 6 4 46 15 90 25 44 9 85 21
90 25 6 4 39 13 75 20 36 6 70 15 75 20 6 4 22 10 37 14 20 5 28 2 31 -11 3
-12 5 -8 6 9 1 27 22 56 96 134 22 23 76 82 120 130 44 49 109 120 145 159 36
39 112 122 170 184 58 63 116 126 130 141 14 14 59 64 100 109 88 97 113 124
194 211 34 36 97 105 141 154 44 48 100 110 125 136 25 26 59 62 75 81 29 31
29 32 4 17 -14 -9 -44 -22 -67 -29 -23 -7 -42 -15 -42 -19 0 -4 -27 -15 -60
-25 -33 -10 -60 -22 -60 -27 0 -4 -8 -8 -18 -8 -10 0 -35 -9 -57 -20 -21 -11
-54 -25 -74 -31 -20 -6 -45 -17 -56 -24 -11 -6 -38 -18 -60 -25 -22 -7 -49
-19 -60 -26 -11 -8 -26 -14 -35 -14 -9 0 -33 -9 -54 -20 -22 -11 -61 -27 -87
-35 -27 -9 -51 -20 -54 -24 -2 -5 -25 -14 -50 -21 -25 -7 -45 -16 -45 -20 0
-4 -19 -13 -42 -19 -24 -7 -62 -22 -85 -32 -23 -10 -47 -19 -52 -19 -12 0 -5
44 15 101 7 20 18 71 25 113 7 42 16 76 20 76 4 0 10 21 14 46 7 47 18 62 79
104 20 14 46 33 58 42 11 10 24 18 27 18 3 0 18 10 33 23 28 23 43 33 163 117
117 82 134 94 173 122 20 15 42 31 47 35 6 5 24 17 40 27 17 11 35 24 42 30 6
6 27 21 45 34 110 77 195 138 206 149 7 7 17 13 21 13 7 0 54 33 96 68 6 5 24
17 40 28 17 10 32 21 35 24 3 3 18 14 34 25 16 11 41 29 57 40 15 11 56 40 91
64 34 25 69 51 76 58 7 7 18 13 23 13 5 0 17 8 27 17 10 10 44 36 77 58 33 22
62 42 65 45 3 3 18 14 34 25 16 11 41 29 57 40 15 11 56 40 91 64 34 25 69 51
76 58 7 7 17 13 21 13 4 0 16 8 27 18 10 9 46 35 79 57 33 22 65 45 72 50 6 6
28 21 48 35 72 50 80 59 30 35 -27 -14 -55 -28 -60 -32 -6 -5 -47 -26 -90 -48
-44 -22 -82 -43 -85 -46 -3 -4 -21 -14 -40 -23 -19 -8 -75 -38 -125 -65 -49
-27 -128 -68 -175 -92 -47 -24 -87 -46 -90 -49 -3 -3 -21 -13 -40 -22 -19 -10
-75 -40 -125 -67 -49 -27 -126 -68 -170 -91 -44 -23 -102 -54 -130 -69 -27
-15 -104 -56 -170 -91 -66 -35 -142 -76 -170 -92 -27 -15 -68 -36 -90 -47 -60
-30 -189 -99 -201 -108 -5 -5 -46 -26 -89 -48 -44 -22 -86 -46 -93 -53 -31
-29 -44 -10 -27 41 7 21 18 68 25 105 7 37 16 72 20 77 4 6 15 55 25 110 9 55
21 105 25 110 4 6 13 39 19 74 12 63 47 119 168 271 52 65 111 141 123 160 21
30 171 228 244 322 34 43 81 105 106 138 25 34 53 69 63 78 9 9 17 20 17 24 0
5 43 63 95 131 84 107 162 209 210 272 9 11 29 38 45 60 16 22 36 49 45 60 8
11 41 54 73 96 31 41 75 99 97 127 47 61 129 168 151 197 30 40 70 93 94 125
48 64 248 325 290 378 22 28 45 52 50 52 5 0 12 -11 16 -25 3 -14 10 -25 14
-25 4 0 11 -12 15 -27 6 -24 30 -85 80 -198 7 -16 16 -41 20 -55 4 -14 13 -34
20 -45 6 -11 18 -38 25 -60 7 -22 19 -49 25 -60 7 -11 16 -31 20 -45 7 -23 16
-44 64 -152 10 -24 25 -62 32 -85 6 -24 15 -43 19 -43 5 0 11 -12 15 -27 6
-24 27 -78 80 -198 7 -16 18 -47 25 -67 6 -21 15 -40 19 -43 5 -2 14 -25 21
-50 7 -25 16 -45 20 -45 4 0 13 -19 19 -43 12 -38 22 -64 67 -162 7 -16 23
-56 35 -88 11 -32 23 -56 26 -54 2 3 -2 20 -10 38 -7 19 -20 63 -27 99 -7 36
-16 67 -20 70 -4 3 -15 43 -24 90 -10 47 -22 90 -26 95 -3 6 -12 37 -19 70 -7
33 -17 65 -21 70 -4 6 -15 48 -25 95 -10 46 -22 91 -26 100 -5 8 -15 42 -23
75 -23 93 -62 238 -69 255 -3 8 -13 44 -22 80 -8 36 -17 72 -20 80 -3 8 -13
47 -22 85 -10 39 -21 75 -24 80 -4 6 -14 46 -24 90 -9 44 -21 85 -25 90 -4 6
-13 39 -20 75 -6 36 -16 70 -20 75 -4 6 -14 38 -20 72 l-12 62 73 95 c41 52
81 104 89 116 8 13 37 50 64 84 32 39 -1 10 -93 -81 -78 -79 -146 -143 -151
-143 -5 0 -14 26 -21 58 -7 31 -15 62 -19 67 -4 6 -15 46 -25 90 -9 44 -21 85
-25 90 -4 6 -13 39 -20 75 -7 36 -16 70 -20 75 -4 6 -15 44 -24 85 -9 41 -21
84 -26 95 -5 11 -19 58 -30 105 -12 47 -28 112 -36 145 -8 33 -18 67 -21 75
-7 16 -45 157 -69 255 -8 33 -19 69 -24 80 -6 11 -17 53 -25 94 -9 41 -19 79
-24 85 -4 6 -14 40 -21 76 -6 36 -15 70 -20 75 -4 6 -16 48 -26 95 -9 47 -20
87 -24 90 -3 3 -14 37 -23 75 -28 122 -57 229 -67 250 -5 11 -17 56 -26 100
-9 44 -20 85 -24 90 -4 6 -13 37 -20 70 -7 33 -16 65 -20 70 -4 6 -16 48 -25
95 -10 47 -21 90 -25 95 -5 6 -13 37 -20 70 -7 33 -15 65 -19 70 -4 6 -16 48
-26 95 -10 47 -22 90 -26 95 -4 6 -12 37 -19 70 -7 33 -16 68 -21 77 -5 10
-16 52 -25 95 -9 43 -20 83 -24 88 -4 6 -15 46 -25 90 -9 44 -21 85 -25 90 -4
6 -13 39 -20 75 -7 36 -16 70 -20 75 -4 6 -16 46 -25 90 -10 44 -21 85 -25 90
-4 6 -13 39 -20 75 -7 36 -16 70 -20 75 -4 6 -16 46 -25 90 -10 44 -21 85 -25
90 -4 6 -11 26 -15 45 -3 19 -16 68 -28 108 -21 71 -24 75 -121 165 -55 51
-109 101 -120 112 -11 11 -38 35 -60 53 -53 45 -95 102 -96 130 0 12 -4 22 -8
22 -5 0 -17 26 -28 58 -10 31 -21 59 -25 62 -3 3 -11 21 -19 40 -8 19 -17 37
-20 40 -3 3 -14 31 -25 63 -11 31 -22 57 -26 57 -4 0 -13 17 -20 38 -6 20 -15
39 -18 42 -10 8 -41 80 -41 94 0 8 17 16 42 20 23 4 47 10 53 15 5 4 48 16 95
26 47 9 90 21 95 25 6 4 39 13 75 20 36 6 70 15 75 20 6 4 48 16 94 25 47 9
92 21 100 25 16 9 127 37 256 66 39 9 75 20 80 24 6 4 48 16 95 25 47 9 90 20
95 24 6 4 37 13 70 20 33 7 69 16 80 21 42 19 95 29 95 18 0 -10 -104 -206
-131 -248 -5 -8 -16 -29 -24 -46 -8 -18 -31 -60 -51 -95 -20 -35 -46 -80 -56
-99 l-20 -35 36 40 c19 22 35 43 36 46 0 3 10 18 23 32 12 14 30 37 39 49 35
47 88 113 103 129 8 9 15 19 15 23 0 6 61 87 80 106 3 3 29 38 59 77 45 60 61
74 90 79 20 4 41 10 46 14 6 4 48 16 95 26 47 9 87 21 90 24 3 4 37 13 75 20
39 7 85 19 103 26 17 7 60 18 95 25 34 7 64 15 67 19 3 3 43 14 90 24 47 10
90 21 95 26 6 4 39 13 74 19 35 7 71 16 80 21 9 5 52 16 96 26 44 9 85 19 90
23 6 3 42 14 80 23 166 40 241 59 260 68 11 5 40 13 65 18 43 9 43 10 10 10
-19 0 -98 -6 -175 -14 -77 -8 -250 -25 -385 -38 -135 -13 -245 -25 -245 -26 0
-1 -90 -11 -200 -22 -110 -10 -224 -22 -252 -25 -44 -4 -53 -2 -53 11 0 9 4
16 8 16 4 0 26 24 47 53 22 28 42 54 45 57 3 3 21 26 40 53 19 26 44 58 55 72
11 13 28 35 37 47 9 13 40 51 67 85 28 34 51 67 51 72 0 6 9 15 20 21 11 6 20
16 20 22 0 5 12 25 28 42 15 18 36 44 47 60 34 47 272 354 465 601 36 46 74
95 85 111 19 26 55 74 93 121 9 13 25 33 34 45 37 49 128 164 142 180 32 37
33 55 25 388 -4 184 -8 413 -8 508 -1 95 -4 171 -8 168 -5 -2 -24 -35 -43 -73
-46 -90 -59 -98 -81 -50 -5 12 -23 45 -39 72 -16 28 -39 66 -50 85 -35 59 -63
107 -107 181 -24 40 -43 76 -43 80 0 5 -4 9 -10 9 -5 0 -12 11 -16 25 -3 13
-12 29 -20 35 -7 7 -20 37 -29 68 -9 32 -23 71 -31 89 -8 17 -14 37 -14 45 0
7 -6 25 -14 40 -8 14 -19 43 -26 65 -7 21 -18 49 -26 63 -7 14 -30 61 -50 105
-40 84 -101 196 -138 255 -48 75 -130 196 -153 225 -13 17 -32 40 -41 52 -9
13 -34 42 -54 65 -23 27 -34 46 -28 52 9 9 182 27 388 42 l73 6 -48 23 c-26
12 -79 37 -118 55 -38 17 -93 43 -120 56 -28 13 -56 24 -63 24 -6 0 -12 5 -12
10 0 6 -5 10 -11 10 -10 0 -79 31 -213 96 -28 13 -56 24 -63 24 -7 0 -13 4
-13 8 0 4 -17 14 -37 21 -48 17 -80 46 -101 91 -9 19 -19 37 -23 40 -3 3 -25
39 -48 80 -23 41 -56 95 -72 120 -16 25 -34 57 -40 73 -6 15 -15 27 -19 27 -4
0 -15 17 -24 38 -18 40 -59 110 -74 128 -5 6 -13 20 -16 32 -4 12 -13 28 -19
34 -14 14 -87 136 -87 145 0 3 -9 16 -20 30 -11 14 -20 35 -20 47 0 19 9 24
63 35 34 7 67 16 72 21 6 4 44 15 85 25 41 10 80 21 85 25 6 4 37 13 70 20 75
15 103 29 59 30 -17 0 -34 -3 -38 -7 -4 -5 -74 -16 -154 -25 -81 -9 -177 -22
-215 -28 -37 -6 -72 -10 -78 -8 -11 4 -26 27 -79 118 -11 19 -31 53 -44 75
-14 22 -46 77 -71 123 -44 78 -62 102 -48 65 3 -10 9 -22 13 -28 4 -5 13 -28
20 -50 7 -22 19 -49 26 -60 8 -11 14 -25 14 -32 0 -7 11 -37 25 -67 14 -30 25
-61 25 -68 0 -8 7 -23 15 -34 33 -44 6 -64 -88 -64 -15 0 -35 -4 -45 -9 -9 -5
-100 -19 -202 -30 -102 -12 -252 -30 -335 -41 -346 -47 -368 -49 -407 -38 -21
6 -38 15 -38 20 0 4 -4 8 -10 8 -9 0 -70 26 -205 90 -54 25 -152 71 -290 135
-27 12 -75 35 -104 49 -30 14 -61 26 -68 26 -7 0 -13 5 -13 10 0 6 -4 10 -10
10 -5 0 -43 16 -84 35 -41 19 -80 35 -86 35 -5 0 -10 5 -10 10 0 6 -6 10 -13
10 -7 0 -35 11 -63 24 -27 13 -85 40 -129 60 -44 20 -88 42 -99 47 -13 7 -16
7 -11 0 3 -6 20 -18 37 -27 17 -9 36 -20 42 -25 10 -9 35 -26 191 -129 33 -21
65 -43 70 -47 6 -4 37 -26 70 -48 33 -22 65 -44 70 -48 12 -10 127 -85 169
-112 17 -10 37 -25 44 -32 7 -7 17 -13 22 -13 5 0 15 -6 22 -12 7 -7 50 -38
95 -68 46 -30 83 -58 83 -62 0 -3 -24 -9 -52 -12 -64 -6 -265 -32 -368 -46
-41 -6 -142 -19 -225 -30 -82 -11 -195 -26 -250 -33 -55 -8 -139 -18 -188 -22
-48 -4 -90 -11 -93 -16 -3 -5 -17 -9 -32 -9 -16 0 -39 -12 -59 -32 -18 -17
-35 -29 -38 -27 -4 5 -18 183 -50 643 -14 213 -21 282 -23 257z m2843 -608 c3
-15 15 -45 25 -68 10 -22 24 -59 31 -82 6 -24 15 -43 19 -43 3 0 13 -23 20
-51 8 -27 17 -52 21 -55 4 -2 15 -30 25 -62 10 -31 21 -59 24 -62 4 -3 14 -25
23 -50 9 -25 28 -76 42 -114 14 -38 24 -70 22 -72 -2 -2 -37 14 -78 35 -41 22
-130 67 -199 101 -69 34 -136 68 -150 75 -14 7 -43 18 -65 25 -22 7 -44 16
-50 20 -5 4 -21 11 -35 15 -27 8 -115 47 -225 100 -38 18 -96 45 -127 60 -58
26 -75 45 -39 45 11 0 22 4 25 8 3 5 31 14 63 21 32 7 63 17 68 21 6 4 44 15
85 25 41 10 80 21 85 25 6 4 37 14 70 21 33 7 71 18 85 24 14 7 53 18 88 25
34 7 62 16 62 21 0 7 25 15 61 18 11 0 19 -9 24 -26z m-982 -402 c6 -6 18 -11
27 -11 14 0 87 -43 145 -84 17 -12 122 -84 280 -190 22 -14 47 -31 55 -36 8
-6 27 -18 41 -28 92 -60 155 -102 164 -109 14 -12 269 -183 308 -208 18 -10
38 -25 45 -32 7 -7 17 -13 22 -13 5 0 15 -6 22 -13 7 -7 27 -22 45 -32 17 -11
57 -38 89 -60 56 -38 59 -39 146 -40 l89 0 30 -75 c16 -41 38 -93 49 -116 11
-23 20 -47 20 -55 0 -8 11 -36 25 -64 13 -27 25 -57 25 -65 0 -9 6 -24 14 -35
7 -11 21 -45 31 -75 10 -30 21 -59 25 -65 4 -5 13 -28 20 -50 7 -22 16 -44 20
-50 4 -5 15 -35 25 -65 10 -30 21 -57 24 -60 3 -3 14 -27 24 -55 38 -103 49
-130 68 -171 10 -24 19 -48 19 -53 0 -6 11 -35 25 -65 14 -30 25 -58 25 -63 1
-4 9 -25 19 -46 17 -37 47 -61 121 -99 61 -31 185 -101 190 -107 3 -3 22 -14
42 -23 64 -30 70 -55 75 -353 3 -147 0 -297 -5 -345 -17 -136 -41 -273 -50
-279 -5 -3 -17 -25 -27 -48 -11 -24 -22 -43 -27 -43 -4 0 -8 -5 -8 -11 0 -6
-25 -55 -55 -109 -30 -54 -69 -125 -85 -157 -17 -32 -51 -94 -76 -138 -24 -44
-54 -98 -65 -120 -12 -22 -34 -62 -49 -90 -15 -27 -43 -78 -60 -112 -18 -35
-37 -63 -41 -63 -5 0 -10 235 -12 523 -3 558 -9 635 -57 724 -11 21 -20 42
-20 47 0 8 -43 80 -75 125 -20 29 -175 181 -184 181 -5 0 -16 6 -23 13 -19 19
-138 74 -178 82 -19 4 -37 11 -40 16 -3 4 -53 13 -112 20 -108 12 -306 0 -332
-19 -6 -5 -39 -17 -73 -27 -35 -10 -63 -22 -63 -27 0 -4 -6 -8 -13 -8 -27 0
-144 -86 -205 -149 -82 -87 -88 -94 -108 -133 -9 -18 -22 -40 -29 -48 -7 -8
-18 -33 -25 -55 -7 -22 -16 -45 -21 -51 -5 -5 -16 -48 -26 -95 -15 -74 -17
-166 -20 -801 l-3 -718 270 0 270 0 0 290 0 290 265 0 265 0 0 -290 0 -290
165 0 c91 0 165 -2 165 -5 0 -15 -78 -142 -104 -168 -34 -35 -105 -97 -156
-137 -18 -14 -44 -35 -58 -47 -14 -13 -28 -23 -31 -23 -3 0 -19 -11 -35 -25
-16 -14 -33 -25 -37 -25 -4 0 -14 -6 -21 -13 -7 -6 -33 -25 -58 -41 -40 -26
-58 -30 -185 -42 -77 -7 -156 -16 -175 -19 -19 -3 -125 -15 -235 -26 -110 -11
-310 -31 -445 -45 -135 -14 -275 -27 -311 -30 l-67 -6 -112 -114 c-62 -63
-122 -120 -133 -126 -14 -7 -61 -7 -166 2 -164 13 -244 32 -275 64 -12 11 -37
35 -55 51 -33 30 -33 30 -26 5 4 -14 12 -26 16 -28 5 -2 9 -12 9 -23 0 -16 -5
-18 -32 -12 -18 3 -35 9 -38 13 -3 3 -32 12 -65 19 -33 7 -79 22 -102 32 -23
10 -48 19 -55 19 -7 0 -29 9 -49 19 -19 11 -54 25 -77 32 -23 7 -42 16 -42 21
0 4 -5 8 -12 8 -12 0 -159 70 -168 80 -3 3 -21 13 -40 22 -19 10 -64 36 -99
58 -34 22 -65 40 -68 40 -3 0 -18 10 -33 23 -16 12 -45 33 -65 47 -19 14 -44
32 -54 40 -145 117 -178 146 -287 255 -108 108 -207 219 -245 275 -13 19 -43
60 -67 91 -23 31 -42 59 -42 63 0 4 -10 22 -23 39 -34 49 -147 244 -147 255 0
3 -13 33 -29 66 -41 86 -71 154 -71 161 0 4 -6 21 -14 38 -16 37 -72 217 -81
265 -4 17 -3 32 2 32 8 0 104 -58 128 -77 19 -15 65 -43 65 -40 0 2 -30 28
-67 57 -38 30 -77 62 -88 72 -11 9 -31 26 -45 36 -21 17 -27 36 -43 138 -31
201 -36 253 -36 428 -1 164 13 294 32 307 10 7 6 22 -15 51 -9 12 -9 25 0 55
6 21 19 90 28 153 9 63 19 120 23 125 5 6 14 39 21 75 7 36 16 70 21 75 4 6
15 39 24 73 9 35 20 71 25 80 5 10 26 60 47 112 20 52 43 101 50 108 7 7 13
18 13 24 0 6 18 36 40 67 22 31 63 88 90 126 27 39 58 84 70 100 32 46 110
158 160 231 153 224 220 297 420 454 36 28 72 56 80 63 8 7 42 30 75 52 33 22
62 43 65 46 3 4 25 13 50 20 25 7 50 16 55 19 6 4 44 15 85 25 41 10 80 21 85
25 6 4 37 14 70 21 33 7 65 16 70 20 6 4 44 15 85 25 41 9 77 19 80 23 3 3 41
16 85 27 175 47 201 55 215 63 8 4 49 16 90 26 41 10 80 21 85 25 6 4 37 13
70 20 33 7 65 16 70 20 6 5 44 16 85 26 41 9 77 20 80 24 10 16 60 19 269 15
135 -2 217 -7 224 -14z m-6897 -913 c27 -17 73 -47 102 -65 77 -50 65 -69 -23
-38 -22 8 -55 15 -74 15 -38 0 -141 30 -141 41 0 4 -11 10 -25 13 -33 8 -32
21 3 34 24 10 86 29 103 31 3 1 28 -13 55 -31z m-686 -549 c63 -5 171 -13 240
-18 69 -5 130 -9 135 -10 6 -1 20 -8 30 -16 21 -17 127 -87 179 -120 17 -10
37 -25 44 -32 7 -7 17 -13 22 -13 5 0 15 -6 22 -12 7 -7 40 -31 73 -53 33 -22
65 -43 70 -48 34 -25 84 -59 113 -74 17 -9 32 -20 32 -24 0 -3 14 -12 30 -19
17 -7 30 -15 30 -19 0 -4 15 -15 33 -26 17 -10 37 -23 42 -27 9 -8 36 -26 190
-128 33 -21 65 -43 70 -47 6 -4 37 -26 70 -48 33 -22 65 -44 70 -48 6 -5 22
-16 36 -25 61 -39 155 -102 164 -110 6 -5 35 -25 65 -45 30 -20 60 -41 66 -46
5 -4 21 -14 35 -21 13 -7 36 -22 50 -34 14 -12 35 -26 45 -33 10 -7 44 -29 74
-50 30 -20 71 -47 90 -60 19 -12 40 -27 46 -32 5 -4 21 -14 34 -21 14 -7 31
-19 38 -27 10 -9 47 -13 130 -14 170 -1 1039 -28 1162 -37 96 -6 110 -10 155
-40 181 -118 368 -239 540 -349 104 -67 102 -65 110 -115 4 -24 10 -47 14 -53
3 -5 13 -44 22 -85 22 -98 57 -217 75 -257 8 -17 14 -36 14 -42 0 -7 9 -31 20
-53 11 -23 20 -45 20 -50 0 -19 85 -197 154 -322 53 -97 155 -257 191 -299 6
-7 26 -34 45 -60 19 -27 44 -58 55 -70 11 -12 30 -34 42 -50 25 -34 155 -168
244 -253 54 -51 103 -93 211 -179 39 -32 206 -144 238 -160 19 -10 37 -21 40
-25 3 -4 39 -24 80 -46 41 -21 76 -42 78 -46 2 -5 8 -8 14 -8 5 0 44 -16 86
-36 146 -69 158 -74 190 -80 17 -4 32 -10 32 -13 0 -4 24 -13 53 -20 28 -8 57
-17 63 -22 6 -5 42 -15 80 -24 38 -9 78 -20 89 -25 11 -5 46 -14 79 -20 59
-10 86 -23 86 -43 0 -5 11 -34 25 -63 48 -101 47 -105 -36 -186 -41 -39 -65
-68 -54 -64 11 5 53 17 94 27 70 17 75 17 87 1 8 -9 14 -21 14 -26 0 -5 11
-32 24 -60 13 -28 30 -70 37 -93 6 -24 15 -43 19 -43 5 0 11 -12 15 -27 3 -15
17 -52 31 -81 13 -29 24 -56 24 -60 0 -4 6 -19 14 -34 8 -14 19 -43 26 -65 7
-21 18 -49 26 -63 27 -52 62 -137 75 -177 6 -24 16 -43 21 -43 4 0 8 -7 8 -15
0 -8 11 -38 24 -67 13 -29 30 -72 37 -95 6 -24 15 -43 19 -43 4 0 13 -20 20
-45 7 -25 16 -48 21 -50 4 -3 15 -29 25 -58 9 -28 23 -61 30 -72 8 -11 14 -25
14 -32 0 -7 10 -35 21 -61 12 -26 32 -69 44 -97 13 -27 29 -69 36 -92 6 -24
16 -43 21 -43 4 0 8 -7 8 -15 0 -8 14 -44 30 -80 17 -36 30 -71 30 -78 0 -7 6
-21 13 -32 12 -17 39 -98 67 -200 5 -16 12 -57 16 -90 4 -33 13 -73 19 -90 7
-16 16 -66 20 -110 4 -44 11 -84 15 -90 4 -5 10 -32 13 -60 3 -27 12 -111 20
-185 8 -74 20 -151 26 -170 13 -40 15 -100 3 -100 -8 0 -25 38 -37 80 -4 14
-13 39 -20 55 -7 17 -29 80 -49 140 -21 61 -41 119 -46 130 -5 11 -17 47 -27
80 -9 33 -20 62 -24 65 -4 3 -10 21 -14 40 -4 19 -16 54 -26 77 -11 23 -19 50
-19 60 -1 16 -2 16 -12 -2 -7 -11 -23 -135 -35 -275 -13 -140 -32 -349 -43
-465 -10 -115 -21 -226 -24 -245 -6 -35 -24 -210 -71 -695 -14 -143 -35 -345
-45 -450 -11 -104 -31 -307 -45 -450 -14 -143 -35 -345 -45 -450 -11 -104 -29
-300 -41 -435 -11 -135 -25 -254 -29 -265 -5 -11 -14 -94 -20 -185 -7 -91 -16
-196 -21 -235 -11 -81 -40 -368 -69 -700 -11 -126 -25 -239 -30 -250 -5 -11
-14 -37 -20 -57 -6 -21 -16 -38 -21 -38 -5 0 -9 -5 -9 -11 0 -12 -31 -81 -39
-89 -4 -3 -24 -39 -45 -80 -57 -109 -76 -142 -98 -170 -11 -14 -164 -171 -341
-351 -1422 -1438 -1460 -1477 -1472 -1513 -7 -20 -16 -53 -19 -72 -6 -28 -15
-38 -44 -52 -20 -9 -39 -20 -42 -23 -3 -3 -23 -14 -45 -25 -47 -24 -164 -86
-290 -154 -49 -27 -108 -58 -130 -69 -22 -11 -80 -42 -130 -70 -49 -27 -126
-68 -170 -91 -44 -23 -120 -64 -170 -91 -49 -27 -106 -57 -125 -66 -19 -8 -37
-18 -40 -22 -3 -3 -43 -26 -90 -49 -273 -140 -266 -135 -329 -257 -11 -22 -34
-62 -51 -90 -16 -27 -37 -63 -45 -80 -55 -104 -70 -119 -150 -145 -22 -7 -49
-19 -60 -26 -11 -8 -25 -14 -32 -14 -7 0 -37 -11 -67 -25 -30 -14 -58 -25 -63
-25 -5 0 -24 -8 -43 -19 -19 -10 -53 -24 -75 -31 -22 -7 -42 -16 -45 -20 -3
-4 -25 -14 -50 -23 -98 -34 -165 -61 -170 -67 -4 -6 -67 -30 -76 -30 -18 0 16
33 128 126 73 60 140 116 148 124 9 8 31 27 50 42 19 15 50 40 69 56 l34 30
-49 -10 c-27 -6 -53 -14 -59 -18 -5 -4 -48 -16 -95 -25 -47 -9 -89 -21 -95
-25 -5 -5 -39 -14 -75 -20 -36 -7 -69 -16 -75 -20 -5 -4 -46 -15 -90 -25 -44
-9 -84 -21 -90 -25 -5 -4 -39 -13 -75 -20 -36 -6 -73 -16 -82 -21 -10 -5 -52
-16 -95 -25 -43 -9 -82 -20 -88 -24 -5 -4 -45 -15 -88 -24 -43 -9 -85 -20 -95
-25 -9 -5 -44 -14 -77 -21 -33 -7 -64 -15 -70 -20 -5 -4 -48 -15 -95 -25 -47
-9 -89 -21 -95 -25 -5 -4 -39 -13 -75 -20 -36 -7 -69 -16 -75 -20 -5 -5 -48
-16 -94 -25 -47 -9 -92 -21 -100 -26 -9 -5 -43 -15 -76 -23 -116 -27 -230 -57
-250 -66 -11 -5 -56 -17 -100 -26 -44 -9 -85 -21 -92 -26 -14 -11 -94 -7 -538
27 -187 14 -464 34 -615 45 -151 10 -295 22 -320 26 -43 6 -259 22 -860 63
-157 11 -305 22 -330 25 -25 3 -103 10 -175 16 -71 6 -142 17 -158 25 -15 7
-52 21 -81 29 -29 9 -66 23 -82 31 -16 8 -36 15 -44 15 -8 0 -28 7 -44 15 -16
8 -54 23 -85 32 -31 8 -63 20 -71 25 -14 8 -56 23 -185 66 -27 9 -52 19 -55
22 -3 3 -32 14 -65 24 -33 10 -64 22 -70 26 -5 4 -32 13 -60 20 -27 7 -55 17
-61 22 -6 4 -34 15 -62 23 -27 8 -63 22 -79 30 -15 8 -35 15 -43 15 -8 0 -28
7 -44 15 -16 8 -54 22 -85 31 -31 9 -60 20 -66 24 -5 4 -32 15 -60 24 -53 17
-161 55 -210 75 -16 7 -49 18 -72 24 -24 6 -43 14 -43 17 0 4 -25 13 -55 20
-30 7 -55 16 -55 20 0 4 -21 13 -47 19 -26 7 -66 21 -89 32 -24 10 -49 19 -56
19 -7 0 -26 7 -42 15 -16 8 -54 22 -85 31 -31 9 -60 20 -66 24 -5 4 -32 15
-60 24 -134 41 -242 96 -336 171 -14 11 -40 31 -59 45 -178 133 -201 152 -264
216 -59 60 -52 51 -226 274 -74 95 -166 212 -205 260 -38 48 -81 102 -95 120
-14 19 -34 44 -45 57 -11 13 -28 33 -37 46 -10 12 -53 65 -95 118 -43 53 -139
173 -213 269 -154 197 -309 393 -340 430 -11 14 -29 36 -40 50 -11 14 -63 79
-116 145 -53 66 -151 190 -218 275 -66 85 -126 162 -133 170 -7 8 -44 56 -83
105 -72 91 -103 130 -140 175 -140 170 -147 183 -165 265 -9 44 -23 121 -31
170 -8 50 -19 99 -24 110 -8 19 -30 135 -66 350 -8 50 -19 99 -24 110 -5 11
-16 70 -25 130 -9 61 -21 119 -25 130 -5 11 -16 63 -25 115 -9 52 -18 104 -21
115 -2 11 -11 61 -20 110 -8 50 -18 97 -21 105 -6 14 -21 93 -68 355 -9 50
-20 99 -25 110 -5 11 -16 72 -26 135 -9 63 -20 120 -24 125 -4 6 -13 51 -20
100 -7 50 -16 95 -20 100 -4 6 -15 64 -25 130 -10 66 -20 125 -24 130 -3 6
-14 53 -23 105 -54 299 -64 346 -71 358 -15 22 -19 200 -8 357 6 83 19 310 30
505 11 195 22 382 26 415 3 33 15 209 25 390 80 1373 80 1366 110 1422 11 21
20 48 20 60 0 12 5 25 10 28 6 3 10 17 10 31 0 13 4 24 9 24 5 0 12 18 16 40
4 22 13 46 20 53 7 7 16 28 20 47 4 19 11 41 15 50 13 24 37 80 60 140 11 30
29 73 39 95 63 135 81 175 81 182 0 8 193 397 210 423 5 8 26 47 46 85 20 39
39 72 43 75 3 3 14 21 24 40 33 65 62 115 75 128 6 7 12 17 12 22 0 5 14 29
30 53 17 25 30 50 30 56 0 6 4 11 9 11 5 0 14 14 21 30 7 17 16 30 20 30 4 0
10 8 14 18 5 17 26 53 36 62 5 4 81 116 149 219 13 20 40 59 61 86 20 28 63
86 96 130 32 44 64 87 71 95 7 8 53 67 104 130 50 63 96 120 103 125 6 6 30
34 53 63 74 94 224 253 453 482 229 228 263 260 380 359 36 31 81 70 100 88
19 17 49 42 65 54 17 13 32 26 35 29 4 5 55 46 120 97 28 22 88 68 115 87 14
11 38 30 53 43 15 13 30 23 34 23 4 0 13 6 20 13 21 19 89 70 138 102 25 17
47 32 50 36 5 5 150 101 308 203 40 26 80 50 90 53 9 4 19 9 22 13 8 10 160
97 220 127 19 9 37 20 40 23 6 6 73 42 216 114 138 69 150 74 219 92 33 9 65
19 70 24 6 4 35 13 65 20 30 7 60 16 65 20 6 4 44 15 85 25 41 10 77 21 80 25
3 4 39 15 80 24 41 10 80 22 85 26 6 4 35 13 65 20 30 7 60 16 65 20 6 4 41
15 80 24 38 10 74 21 80 26 5 4 34 13 64 19 30 6 59 15 65 20 6 5 45 16 86 26
41 10 80 21 85 25 6 4 35 13 65 20 30 7 60 16 65 20 6 5 39 16 75 24 36 9 74
21 85 26 19 9 100 32 230 67 33 9 62 19 65 23 3 4 39 15 80 25 41 10 80 21 85
25 6 4 35 13 65 20 30 7 60 16 65 20 6 4 35 13 65 20 30 7 69 18 85 26 17 7
57 20 90 29 33 9 82 23 110 31 27 8 86 18 130 23 44 5 100 14 125 20 25 6 126
15 225 21 99 6 230 14 290 19 159 11 630 11 765 0z m4352 -662 c-6 -7 -17 -54
-23 -105 -8 -55 -17 -92 -24 -92 -6 0 -21 9 -33 20 -12 11 -26 20 -32 20 -17
0 -11 22 17 64 16 23 30 43 33 46 4 3 17 22 29 43 16 26 27 35 34 28 7 -7 7
-14 -1 -24z m5946 -409 c28 -14 24 -28 -34 -130 -24 -42 -44 -79 -44 -82 0 -4
-61 -106 -64 -106 -1 0 -2 90 -4 200 l-2 200 62 -36 c35 -19 73 -40 86 -46z
m-6151 -301 c10 -10 42 -33 71 -52 69 -43 65 -37 74 -100 4 -30 12 -80 16
-110 4 -30 5 -55 1 -55 -7 0 -161 127 -264 219 -11 9 -46 38 -77 63 -31 26
-53 49 -50 53 4 4 53 5 109 3 81 -3 106 -7 120 -21z m4542 -158 c73 -15 145
-79 162 -143 6 -23 15 -49 20 -58 5 -10 9 -92 9 -183 l0 -165 -262 2 -263 3
-3 150 c-4 195 12 258 85 331 66 66 146 86 252 63z m-17228 -3713 c-11 -42
-24 -82 -29 -89 -5 -7 -12 -25 -16 -42 -14 -62 -31 -115 -37 -115 -4 0 -10
-19 -13 -43 -4 -23 -13 -54 -20 -68 -7 -14 -16 -43 -20 -65 -7 -40 -22 -93
-37 -129 -4 -11 -13 -45 -20 -75 -7 -30 -16 -59 -20 -65 -4 -5 -10 -35 -14
-65 -4 -30 -13 -66 -20 -80 -12 -23 -30 -112 -42 -203 -3 -20 -9 -40 -14 -43
-5 -3 -9 -17 -9 -31 0 -14 -4 -42 -9 -62 -12 -45 -30 -146 -43 -231 -5 -36
-14 -90 -19 -120 -14 -79 -28 -185 -35 -262 -4 -38 -10 -68 -15 -68 -6 0 -22
13 -37 28 -101 107 -214 226 -322 342 -69 73 -133 142 -143 153 -10 10 -16 24
-12 30 14 27 31 54 43 67 7 8 24 33 39 55 14 22 51 76 81 120 31 44 76 109
101 145 25 36 60 85 78 110 18 25 40 59 49 75 9 17 20 32 23 35 13 11 61 79
61 87 0 5 13 24 30 43 16 19 29 41 30 48 0 6 4 12 10 12 5 0 17 16 26 35 9 19
20 35 24 35 4 0 13 14 20 30 7 17 15 30 19 30 4 0 15 15 26 33 10 17 21 34 24
37 3 3 24 32 46 65 22 33 42 62 45 65 3 3 23 32 45 65 22 33 43 65 48 70 4 6
26 36 48 68 23 32 43 56 45 54 2 -2 -5 -39 -15 -81z m16834 -2888 c4 -18 13
-42 19 -53 7 -11 19 -38 26 -60 7 -22 18 -49 25 -60 6 -11 18 -38 25 -60 7
-22 19 -49 26 -60 8 -11 14 -25 14 -32 0 -7 11 -36 24 -65 55 -123 65 -145 77
-185 6 -24 15 -43 19 -43 5 0 11 -12 15 -27 3 -15 17 -52 31 -81 13 -29 24
-58 24 -65 0 -7 6 -21 13 -32 7 -11 22 -42 32 -70 10 -27 21 -54 25 -60 4 -5
13 -28 20 -50 7 -22 19 -49 26 -60 8 -11 14 -25 14 -32 0 -7 11 -36 24 -65 49
-109 64 -144 71 -168 4 -14 16 -41 26 -60 11 -19 19 -39 19 -45 0 -5 12 -32
25 -60 14 -27 25 -57 25 -65 0 -9 6 -24 14 -35 39 -57 40 -55 -147 -243 -173
-174 -579 -584 -891 -901 -136 -138 -176 -174 -176 -158 0 2 9 22 20 45 11 22
20 48 20 56 0 8 5 18 10 21 6 3 10 17 10 30 0 13 5 27 10 30 6 3 10 17 10 30
0 13 4 26 9 29 4 3 11 24 15 46 3 23 10 49 15 58 5 9 14 37 21 62 7 25 16 53
21 62 5 10 9 27 9 37 0 11 4 22 9 25 4 3 11 29 15 58 4 28 13 63 21 77 8 15
19 53 25 86 20 111 22 120 30 130 4 6 11 35 15 65 4 30 13 69 20 85 8 17 19
64 25 105 6 41 13 91 16 110 3 19 9 44 14 55 4 11 14 63 20 115 7 52 16 100
20 105 4 6 11 53 15 105 3 52 13 115 20 140 14 44 33 239 42 425 2 50 8 99 13
110 5 11 12 97 15 190 11 369 16 435 30 435 7 0 16 -15 20 -32z m-1515 -4858
c0 -10 -4 -22 -10 -25 -5 -3 -10 -16 -10 -28 0 -15 -13 -29 -40 -44 -21 -13
-44 -23 -49 -23 -6 0 12 34 40 75 49 72 69 85 69 45z m-76 -672 c-7 -81 -15
-152 -18 -157 -4 -5 -21 -12 -39 -16 -17 -4 -41 -13 -52 -19 -11 -7 -38 -19
-60 -26 -22 -7 -49 -18 -60 -25 -11 -6 -38 -18 -60 -25 -22 -7 -49 -18 -60
-25 -11 -6 -38 -18 -60 -25 -22 -7 -44 -16 -50 -20 -5 -4 -28 -13 -50 -20 -22
-7 -49 -18 -60 -25 -11 -6 -38 -18 -60 -25 -22 -7 -49 -19 -60 -25 -11 -7 -31
-16 -45 -20 -14 -4 -38 -13 -55 -21 -43 -19 -135 -54 -142 -54 -3 0 5 9 18 20
13 11 29 24 35 28 5 5 20 14 31 21 12 6 27 17 35 24 7 7 26 21 43 31 16 11 34
23 40 28 5 5 46 34 90 65 44 32 82 60 85 63 3 3 32 23 65 45 33 22 65 43 70
48 6 4 27 21 49 37 21 17 42 30 45 30 4 0 16 8 27 18 10 9 29 24 41 32 104 72
150 106 161 117 7 7 17 13 21 13 4 0 16 8 27 18 18 17 58 43 60 39 0 -1 -5
-68 -12 -149z m-8684 -2194 c41 -9 127 -26 190 -37 63 -12 120 -25 125 -28 6
-4 57 -14 114 -23 57 -9 111 -21 120 -25 9 -5 54 -14 101 -21 47 -7 90 -15 95
-19 9 -6 140 -32 335 -67 47 -8 92 -19 100 -23 9 -5 49 -14 90 -20 130 -21
130 -23 -7 -59 -69 -18 -133 -26 -217 -29 -107 -4 -130 -1 -215 23 -53 14
-100 30 -106 34 -5 4 -32 15 -60 24 -77 24 -178 61 -200 73 -11 5 -33 13 -50
17 -16 4 -48 16 -72 27 -23 10 -48 19 -55 19 -7 0 -25 6 -40 14 -15 8 -51 21
-81 30 -30 9 -67 23 -83 31 -16 8 -36 15 -44 15 -8 0 -33 9 -55 20 -22 11 -48
19 -57 20 -10 0 -18 5 -18 10 0 13 2 13 90 -6z"/>
<path d="M16446 19129 c-55 -4 -111 -13 -125 -18 -14 -6 -57 -16 -96 -22 -38
-6 -89 -20 -112 -30 -23 -11 -47 -19 -53 -19 -19 0 -204 -87 -265 -125 -50
-30 -174 -115 -197 -133 -127 -104 -329 -353 -383 -474 -9 -18 -19 -40 -24
-48 -16 -25 -48 -103 -61 -145 -7 -22 -16 -44 -20 -50 -5 -5 -16 -48 -25 -95
-9 -47 -21 -94 -26 -105 -9 -22 -22 -134 -39 -330 -8 -90 -10 -523 -8 -1405
l3 -1275 553 -3 552 -2 0 570 0 570 650 0 650 0 0 480 0 480 -650 0 -650 0 0
258 c0 282 12 455 35 499 8 15 15 33 15 39 0 35 109 165 179 213 83 56 141 74
254 79 104 4 227 -11 227 -28 0 -4 12 -11 28 -14 53 -13 202 -141 202 -173 0
-7 4 -13 9 -13 5 0 15 -17 22 -37 6 -21 16 -44 21 -50 18 -23 38 -196 38 -330
l0 -133 555 0 556 0 -4 173 c-4 178 -21 373 -37 436 -29 117 -52 192 -65 217
-8 16 -15 35 -15 42 0 31 -150 311 -172 320 -5 2 -8 8 -8 13 0 18 -113 155
-185 224 -110 105 -127 118 -305 235 -46 30 -242 120 -262 120 -7 0 -26 7 -41
15 -15 8 -65 22 -110 31 -45 9 -91 20 -102 25 -25 11 -255 29 -344 28 -36 -1
-111 -5 -165 -10z"/>
<path d="M8538 15469 c-290 -25 -551 -150 -754 -362 -224 -232 -335 -506 -335
-827 0 -321 111 -595 335 -827 251 -262 588 -389 951 -362 293 23 554 147 761
362 224 231 335 504 335 822 0 326 -109 598 -335 832 -194 202 -457 333 -716
358 -128 12 -156 12 -242 4z"/>
<path d="M6145 14829 c-270 -249 -485 -1647 -566 -3684 -17 -446 -26 -1348
-18 -1952 31 -2375 271 -4233 584 -4522 40 -37 50 -41 95 -41 45 0 55 4 95 41
271 250 487 1660 566 3689 27 709 27 2071 0 2780 -79 2029 -295 3439 -566
3689 -40 37 -50 41 -95 41 -45 0 -55 -4 -95 -41z m130 -163 c210 -358 394
-1659 465 -3276 42 -962 42 -2318 0 -3280 -71 -1617 -255 -2918 -465 -3276
-14 -24 -30 -44 -35 -44 -5 0 -21 20 -35 44 -179 306 -343 1310 -429 2631 -48
725 -66 1359 -66 2285 0 926 18 1560 66 2285 86 1321 250 2325 429 2631 14 24
30 44 35 44 5 0 21 -20 35 -44z"/>
<path d="M4687 13558 c-180 -171 -332 -1041 -402 -2303 -50 -916 -50 -2084 0
-3000 71 -1277 230 -2173 410 -2311 43 -32 97 -32 140 0 180 138 339 1034 410
2311 37 680 49 1776 25 2430 -51 1423 -185 2441 -366 2786 -45 86 -85 119
-142 119 -32 0 -48 -7 -75 -32z"/>
<path d="M9381 12775 c-282 -79 -474 -336 -472 -635 0 -96 12 -157 65 -323 22
-69 23 -77 8 -73 -9 3 -372 75 -806 161 -496 97 -811 155 -850 155 -169 0
-342 -174 -401 -405 -19 -73 -21 -231 -5 -300 31 -127 112 -240 202 -284 28
-13 436 -98 1132 -235 599 -119 1093 -219 1096 -223 4 -4 175 -541 379 -1192
239 -759 370 -1193 367 -1207 -4 -13 -215 -587 -470 -1276 -269 -729 -467
-1276 -471 -1308 -12 -85 -7 -157 14 -205 26 -59 1563 -2356 1604 -2396 18
-18 56 -43 85 -57 310 -142 773 160 773 505 0 50 -6 86 -19 117 -11 24 -323
496 -693 1049 l-672 1006 272 738 c151 406 276 744 280 751 4 6 105 -203 230
-475 337 -735 349 -757 419 -829 33 -34 80 -71 104 -82 59 -29 2757 -562 2842
-562 167 0 332 163 396 390 24 86 28 237 9 316 -30 126 -111 239 -201 283 -28
13 -472 105 -1238 256 -657 130 -1198 239 -1202 243 -4 4 -185 394 -403 867
-315 685 -399 877 -415 945 -11 47 -156 519 -324 1050 -167 531 -303 966 -302
967 1 1 260 -156 576 -349 316 -193 595 -359 619 -370 60 -27 167 -27 243 2
142 53 262 167 333 315 53 111 67 167 66 270 0 119 -33 205 -103 271 -18 18
-522 330 -1120 694 l-1087 662 -41 132 c-93 301 -125 368 -220 466 -66 69
-147 122 -238 157 -56 22 -87 27 -187 29 -86 3 -135 0 -174 -11z"/>
<path d="M3419 12738 c-40 -37 -66 -88 -104 -200 -171 -511 -269 -1813 -244
-3219 20 -1092 110 -1965 244 -2367 55 -163 99 -222 165 -222 66 0 110 59 165
222 171 511 269 1813 244 3219 -20 1092 -110 1965 -244 2367 -55 163 -99 222
-165 222 -25 0 -45 -8 -61 -22z m94 -275 c105 -350 182 -1022 217 -1898 13
-322 13 -1318 0 -1640 -35 -876 -112 -1548 -217 -1897 -14 -49 -29 -88 -33
-88 -18 0 -77 234 -114 457 -99 584 -146 1340 -146 2348 0 1009 47 1757 146
2348 37 222 96 457 114 457 4 0 19 -39 33 -87z"/>
<path d="M20328 14523 c7 -3 16 -2 19 1 4 3 -2 6 -13 5 -11 0 -14 -3 -6 -6z"/>
</g>
</svg>
